<svg xmlns="http://www.w3.org/2000/svg" viewBox="0 0 100 100">
  <rect width="100" height="100" fill="#0a0a0a"/>
  
  <!-- Tronco base -->
  <path d="M48 90 Q46 75 44 62 Q42 50 44 42" stroke="#c9a84c" stroke-width="5" fill="none" stroke-linecap="round"/>
  <path d="M52 90 Q54 75 56 62 Q58 50 56 42" stroke="#c9a84c" stroke-width="5" fill="none" stroke-linecap="round"/>
  <path d="M44 90 Q50 88 56 90" stroke="#c9a84c" stroke-width="4" fill="none" stroke-linecap="round"/>

  <!-- Rama izquierda principal -->
  <path d="M44 58 Q36 50 28 44 Q22 38 18 30" stroke="#c9a84c" stroke-width="3.5" fill="none" stroke-linecap="round"/>
  <!-- Rama izquierda secundaria -->
  <path d="M40 52 Q32 46 26 36" stroke="#c9a84c" stroke-width="2.5" fill="none" stroke-linecap="round"/>
  <!-- Rama izquierda terciaria -->
  <path d="M36 46 Q30 38 28 28" stroke="#c9a84c" stroke-width="2" fill="none" stroke-linecap="round"/>

  <!-- Rama derecha principal -->
  <path d="M56 58 Q64 50 72 44 Q78 38 82 30" stroke="#c9a84c" stroke-width="3.5" fill="none" stroke-linecap="round"/>
  <!-- Rama derecha secundaria -->
  <path d="M60 52 Q68 46 74 36" stroke="#c9a84c" stroke-width="2.5" fill="none" stroke-linecap="round"/>
  <!-- Rama derecha terciaria -->
  <path d="M64 46 Q70 38 72 28" stroke="#c9a84c" stroke-width="2" fill="none" stroke-linecap="round"/>

  <!-- Rama central -->
  <path d="M50 44 Q50 34 50 22" stroke="#c9a84c" stroke-width="3" fill="none" stroke-linecap="round"/>
  <path d="M50 32 Q45 24 42 16" stroke="#c9a84c" stroke-width="2" fill="none" stroke-linecap="round"/>
  <path d="M50 32 Q55 24 58 16" stroke="#c9a84c" stroke-width="2" fill="none" stroke-linecap="round"/>

  <!-- Tips redondeados — puntas del hongo -->
  <circle cx="18" cy="28" r="3.5" fill="#e8c96a"/>
  <circle cx="26" cy="34" r="3" fill="#e8c96a"/>
  <circle cx="28" cy="26" r="2.5" fill="#e8c96a"/>
  <circle cx="42" cy="14" r="3" fill="#e8c96a"/>
  <circle cx="50" cy="20" r="3.5" fill="#e8c96a"/>
  <circle cx="58" cy="14" r="3" fill="#e8c96a"/>
  <circle cx="72" cy="26" r="2.5" fill="#e8c96a"/>
  <circle cx="74" cy="34" r="3" fill="#e8c96a"/>
  <circle cx="82" cy="28" r="3.5" fill="#e8c96a"/>
</svg>
