<svg xmlns="http://www.w3.org/2000/svg" viewBox="0 0 100 100">

  <!-- Tronco base -->
  <path d="M44 99 Q43 82 42 68 Q41 56 44 48" stroke="#111" stroke-width="11" fill="none" stroke-linecap="round"/>
  <path d="M56 99 Q57 82 58 68 Q59 56 56 48" stroke="#111" stroke-width="11" fill="none" stroke-linecap="round"/>
  <path d="M42 99 Q50 95 58 99" stroke="#111" stroke-width="9" fill="none" stroke-linecap="round"/>

  <!-- Rama izquierda principal -->
  <path d="M43 64 Q32 54 20 42" stroke="#111" stroke-width="9" fill="none" stroke-linecap="round"/>
  <!-- Sub-rama izq arriba -->
  <path d="M30 52 Q22 42 14 30" stroke="#111" stroke-width="7" fill="none" stroke-linecap="round"/>
  <!-- Sub-rama izq abajo -->
  <path d="M36 58 Q26 54 16 50" stroke="#111" stroke-width="7" fill="none" stroke-linecap="round"/>

  <!-- Rama derecha principal -->
  <path d="M57 64 Q68 54 80 42" stroke="#111" stroke-width="9" fill="none" stroke-linecap="round"/>
  <!-- Sub-rama der arriba -->
  <path d="M70 52 Q78 42 86 30" stroke="#111" stroke-width="7" fill="none" stroke-linecap="round"/>
  <!-- Sub-rama der abajo -->
  <path d="M64 58 Q74 54 84 50" stroke="#111" stroke-width="7" fill="none" stroke-linecap="round"/>

  <!-- Rama central -->
  <path d="M50 48 Q50 36 50 20" stroke="#111" stroke-width="9" fill="none" stroke-linecap="round"/>
  <!-- Sub-rama centro izq -->
  <path d="M50 32 Q42 22 36 10" stroke="#111" stroke-width="7" fill="none" stroke-linecap="round"/>
  <!-- Sub-rama centro der -->
  <path d="M50 32 Q58 22 64 10" stroke="#111" stroke-width="7" fill="none" stroke-linecap="round"/>
  <!-- Sub-rama centro arriba -->
  <path d="M50 22 Q46 14 44 6" stroke="#111" stroke-width="6" fill="none" stroke-linecap="round"/>
  <path d="M50 22 Q54 14 56 6" stroke="#111" stroke-width="6" fill="none" stroke-linecap="round"/>

  <!-- Puntas -->
  <circle cx="13" cy="28" r="6" fill="#111"/>
  <circle cx="14" cy="48" r="5" fill="#111"/>
  <circle cx="19" cy="40" r="5" fill="#111"/>
  <circle cx="35" cy="8" r="5" fill="#111"/>
  <circle cx="44" cy="4" r="5.5" fill="#111"/>
  <circle cx="50" cy="17" r="6" fill="#111"/>
  <circle cx="56" cy="4" r="5.5" fill="#111"/>
  <circle cx="65" cy="8" r="5" fill="#111"/>
  <circle cx="84" cy="48" r="5" fill="#111"/>
  <circle cx="81" cy="40" r="5" fill="#111"/>
  <circle cx="87" cy="28" r="6" fill="#111"/>
</svg>
