<svg xmlns="http://www.w3.org/2000/svg" viewBox="0 0 100 100">

  <!-- TRONCO -->
  <path d="M47 99 Q46 86 45 72 Q44 60 46 52" stroke="#d45f45" stroke-width="7.7" fill="none" stroke-linecap="round"/>
  <path d="M53 99 Q54 86 55 72 Q56 60 54 52" stroke="#d45f45" stroke-width="7.7" fill="none" stroke-linecap="round"/>
  <path d="M45 99 Q50 97 55 99" stroke="#d45f45" stroke-width="7.7" fill="none" stroke-linecap="round"/>

  <!-- IZQUIERDA nivel 1 -->
  <path d="M45 64 Q37 57 27 48" stroke="#d45f45" stroke-width="6.2" fill="none" stroke-linecap="round"/>
  <path d="M45 60 Q35 56 22 52" stroke="#d45f45" stroke-width="5.5" fill="none" stroke-linecap="round"/>

  <!-- IZQUIERDA nivel 2 -->
  <path d="M33 55 Q24 47 14 38" stroke="#d45f45" stroke-width="4.8" fill="none" stroke-linecap="round"/>
  <path d="M27 50 Q18 46 10 44" stroke="#d45f45" stroke-width="4.4" fill="none" stroke-linecap="round"/>
  <path d="M23 54 Q16 58 10 62" stroke="#d45f45" stroke-width="4.0" fill="none" stroke-linecap="round"/>

  <!-- IZQUIERDA nivel 3 -->
  <path d="M20 43 Q14 35 8 24" stroke="#d45f45" stroke-width="3.5" fill="none" stroke-linecap="round"/>
  <path d="M15 38 Q10 30 6 20" stroke="#d45f45" stroke-width="3.1" fill="none" stroke-linecap="round"/>
  <path d="M14 36 Q9 42 6 50" stroke="#d45f45" stroke-width="3.1" fill="none" stroke-linecap="round"/>
  <path d="M10 44 Q6 50 4 58" stroke="#d45f45" stroke-width="2.9" fill="none" stroke-linecap="round"/>
  <path d="M12 62 Q8 66 4 68" stroke="#d45f45" stroke-width="2.9" fill="none" stroke-linecap="round"/>

  <!-- DERECHA nivel 1 -->
  <path d="M55 64 Q63 57 73 48" stroke="#d45f45" stroke-width="6.2" fill="none" stroke-linecap="round"/>
  <path d="M55 60 Q65 56 78 52" stroke="#d45f45" stroke-width="5.5" fill="none" stroke-linecap="round"/>

  <!-- DERECHA nivel 2 -->
  <path d="M67 55 Q76 47 86 38" stroke="#d45f45" stroke-width="4.8" fill="none" stroke-linecap="round"/>
  <path d="M73 50 Q82 46 90 44" stroke="#d45f45" stroke-width="4.4" fill="none" stroke-linecap="round"/>
  <path d="M77 54 Q84 58 90 62" stroke="#d45f45" stroke-width="4.0" fill="none" stroke-linecap="round"/>

  <!-- DERECHA nivel 3 -->
  <path d="M80 43 Q86 35 92 24" stroke="#d45f45" stroke-width="3.5" fill="none" stroke-linecap="round"/>
  <path d="M85 38 Q90 30 94 20" stroke="#d45f45" stroke-width="3.1" fill="none" stroke-linecap="round"/>
  <path d="M86 36 Q91 42 94 50" stroke="#d45f45" stroke-width="3.1" fill="none" stroke-linecap="round"/>
  <path d="M90 44 Q94 50 96 58" stroke="#d45f45" stroke-width="2.9" fill="none" stroke-linecap="round"/>
  <path d="M88 62 Q92 66 96 68" stroke="#d45f45" stroke-width="2.9" fill="none" stroke-linecap="round"/>

  <!-- CENTRO nivel 1 -->
  <path d="M50 52 Q50 40 50 26" stroke="#d45f45" stroke-width="6.2" fill="none" stroke-linecap="round"/>

  <!-- CENTRO nivel 2 -->
  <path d="M50 42 Q44 32 38 20" stroke="#d45f45" stroke-width="4.8" fill="none" stroke-linecap="round"/>
  <path d="M50 42 Q56 32 62 20" stroke="#d45f45" stroke-width="4.8" fill="none" stroke-linecap="round"/>
  <path d="M50 32 Q46 22 43 12" stroke="#d45f45" stroke-width="4.4" fill="none" stroke-linecap="round"/>
  <path d="M50 32 Q54 22 57 12" stroke="#d45f45" stroke-width="4.4" fill="none" stroke-linecap="round"/>

  <!-- CENTRO nivel 3 -->
  <path d="M40 22 Q36 14 33 6" stroke="#d45f45" stroke-width="3.3" fill="none" stroke-linecap="round"/>
  <path d="M38 18 Q34 10 32 4" stroke="#d45f45" stroke-width="2.9" fill="none" stroke-linecap="round"/>
  <path d="M44 14 Q42 8 40 2" stroke="#d45f45" stroke-width="2.9" fill="none" stroke-linecap="round"/>
  <path d="M50 26 Q48 16 46 6" stroke="#d45f45" stroke-width="3.3" fill="none" stroke-linecap="round"/>
  <path d="M50 26 Q52 16 54 6" stroke="#d45f45" stroke-width="3.3" fill="none" stroke-linecap="round"/>
  <path d="M60 22 Q64 14 67 6" stroke="#d45f45" stroke-width="3.3" fill="none" stroke-linecap="round"/>
  <path d="M62 18 Q66 10 68 4" stroke="#d45f45" stroke-width="2.9" fill="none" stroke-linecap="round"/>
  <path d="M56 14 Q58 8 60 2" stroke="#d45f45" stroke-width="2.9" fill="none" stroke-linecap="round"/>

  <!-- PUNTAS amarillas — pequeñas -->
  <circle cx="6" cy="19" r="4.4" fill="#f0d44a"/>
  <circle cx="4" cy="57" r="4.0" fill="#f0d44a"/>
  <circle cx="4" cy="67" r="4.0" fill="#f0d44a"/>
  <circle cx="8" cy="50" r="4.0" fill="#f0d44a"/>
  <circle cx="32" cy="3" r="4.0" fill="#f0d44a"/>
  <circle cx="38" cy="1" r="4.0" fill="#f0d44a"/>
  <circle cx="40" cy="1" r="4.0" fill="#f0d44a"/>
  <circle cx="43" cy="10" r="4.4" fill="#f0d44a"/>
  <circle cx="46" cy="5" r="4.4" fill="#f0d44a"/>
  <circle cx="54" cy="5" r="4.4" fill="#f0d44a"/>
  <circle cx="57" cy="10" r="4.4" fill="#f0d44a"/>
  <circle cx="60" cy="1" r="4.0" fill="#f0d44a"/>
  <circle cx="68" cy="3" r="4.0" fill="#f0d44a"/>
  <circle cx="94" cy="19" r="4.4" fill="#f0d44a"/>
  <circle cx="96" cy="50" r="4.0" fill="#f0d44a"/>
  <circle cx="96" cy="57" r="4.0" fill="#f0d44a"/>
  <circle cx="96" cy="67" r="4.0" fill="#f0d44a"/>
  <circle cx="10" cy="64" r="4.0" fill="#f0d44a"/>
  <circle cx="90" cy="64" r="4.0" fill="#f0d44a"/>
</svg>
